<svg id="Layer_2" data-name="Layer 2" xmlns="http://www.w3.org/2000/svg" xmlns:xlink="http://www.w3.org/1999/xlink" viewBox="0 0 400 300" data-imageid="coding-isometric" imageName="Coding" class="illustrations_image" style="width: 148px;"><defs><linearGradient id="linear-gradient" x1="84.58" y1="236.04" x2="146.33" y2="192.57" gradientUnits="userSpaceOnUse"><stop offset="0" stop-color="#fff" stop-opacity="0"/><stop offset="0.98" stop-color="#089fbf"/></linearGradient></defs><title>0</title><path d="M208.93,283.26,358.68,200a7.06,7.06,0,0,0,.27-12.21L213.78,98.7a7.21,7.21,0,0,0-7.36-.11L48,189.66a7.06,7.06,0,0,0,0,12.26l141.25,81.19A20,20,0,0,0,208.93,283.26Z" fill="#b4ee73"/><path d="M98.18,224.1c5.21,3.14,10.35,6.4,15.52,9.61l106.18-64.92c-13.25-8.89-23.17-11.35-34.64-22.33L78.48,212.34C84.61,216.87,91.64,220.17,98.18,224.1Z" opacity="0.32" fill="url(#linear-gradient)"/><path d="M198.49,154.33l18.92,9a4.3,4.3,0,0,1,.31,7.61l-44.85,25.92a4.38,4.38,0,0,1-5.86-1.39l-10.9-16.79" fill="#56403d"/><path d="M104.34,105.77,255.25,19.65a6.81,6.81,0,0,1,10.21,5.84v89.59a5.6,5.6,0,0,1-2.83,4.86l-160.86,92a3.65,3.65,0,0,1-5.48-3.13V119.57A15.89,15.89,0,0,1,104.34,105.77Z" fill="#68e1fd" class="target-color"/><path d="M255.24,26.42l-146.32,83.4a10.15,10.15,0,0,0-5.14,8.81v67.16a3.7,3.7,0,0,0,5.55,3.18l149.23-84.83a3.61,3.61,0,0,0,1.83-3.14V29.37A3.44,3.44,0,0,0,255.24,26.42Z" fill="#172d51"/><path d="M191.23,149A3.21,3.21,0,1,0,195,146,3.4,3.4,0,0,0,191.23,149Z" fill="#ab643c"/><ellipse cx="114.87" cy="111.87" rx="1.6" ry="1.71" fill="#659fe4"/><ellipse cx="119.95" cy="109.38" rx="1.6" ry="1.71" fill="#c5e9ff"/><polygon points="217.06 75.64 217.06 79.74 251.31 59.84 251.31 55.84 217.06 75.64" fill="#f7931e"/><polygon points="213.66 77.61 117.11 133.43 117.11 137.83 213.66 81.72 213.66 77.61" fill="#00a99d"/><polygon points="132.21 138.02 117.11 146.75 117.11 151.16 132.21 142.38 132.21 138.02" fill="#8cc63f"/><polygon points="135.62 136.05 135.62 140.4 189.68 108.98 189.68 104.8 135.62 136.05" fill="#f7931e"/><polygon points="193.09 102.83 193.09 107 228.45 86.45 228.45 82.39 193.09 102.83" fill="#f15a24"/><polygon points="231.85 80.42 231.85 84.47 251.31 73.17 251.31 69.17 231.85 80.42" fill="#8cc63f"/><polygon points="214.74 103.53 118.2 159.35 118.2 163.75 214.74 107.64 214.74 103.53" fill="#00a99d"/><path d="M232.45,211.17l26-15.44a3.42,3.42,0,0,1,3.49,0l20.55,12.2a3.42,3.42,0,0,1-.06,5.91l-24.83,14.09a3.42,3.42,0,0,1-3.36,0l-21.71-12.21A2.63,2.63,0,0,1,232.45,211.17Z" fill="#146666"/><polygon points="231.16 213.41 231.17 209.15 234.1 210.07 233.24 213.5 231.16 213.41" fill="#146666"/><polygon points="284.14 210.59 284.14 206.61 281.66 207.77 282.83 210.07 284.14 210.59" fill="#146666"/><path d="M232.45,206.89l26-15.44a3.42,3.42,0,0,1,3.49,0l20.55,12.2a3.42,3.42,0,0,1-.06,5.91l-24.83,14.09a3.42,3.42,0,0,1-3.36,0l-21.71-12.21A2.63,2.63,0,0,1,232.45,206.89Z" fill="#2c9390"/><path d="M187.11,237.1l26-15.44a3.42,3.42,0,0,1,3.49,0l20.55,12.2a3.42,3.42,0,0,1-.06,5.91l-24.83,14.09a3.42,3.42,0,0,1-3.36,0l-21.71-12.21A2.63,2.63,0,0,1,187.11,237.1Z" fill="#146666"/><polygon points="185.82 239.33 185.82 235.08 188.75 236 187.9 239.42 185.82 239.33" fill="#146666"/><polygon points="238.79 236.52 238.79 232.54 236.32 233.7 237.48 236 238.79 236.52" fill="#146666"/><path d="M187.11,232.82l26-15.44a3.42,3.42,0,0,1,3.49,0l20.55,12.2a3.42,3.42,0,0,1-.06,5.91l-24.83,14.09a3.42,3.42,0,0,1-3.36,0l-21.71-12.21A2.63,2.63,0,0,1,187.11,232.82Z" fill="#2c9390"/><path d="M340.44,169s-.9,25.61-14.45,26.22S311.53,169,311.53,169" fill="#6de2fc"/><path d="M340.44,170.16s-.9,25.61-14.45,26.22-14.45-26.22-14.45-26.22" fill="#68e1fd" class="target-color"/><ellipse cx="325.99" cy="169.01" rx="14.45" ry="7.5" fill="#311e69"/><path d="M329.92,174.13a189.16,189.16,0,0,1,13.54-45.72c.52-1.19,2.26-.16,1.74,1a187.23,187.23,0,0,0-13.34,45.24C331.66,175.94,329.71,175.4,329.92,174.13Z" fill="#311e69"/><path d="M321.66,174.8q1.49-28.78,5.16-57.38c.16-1.27,2.18-1.29,2,0q-3.66,28.53-5.15,57.28C323,174.72,322.33,174.75,321.66,174.8Z" fill="#311e69"/><path d="M347.93,124.68a10.72,10.72,0,0,1,7.13.57c1.62.72,5,2.77,4.33,5s-4.74,1.86-6.36,1.36a9.23,9.23,0,0,1-5.59-5.19,1.13,1.13,0,0,1-.07-.24A1,1,0,0,1,347.93,124.68Z" fill="#c3ea75"/><path d="M344.76,123.48a.86.86,0,0,0,1.35.42c2.21-1.63,5-2.65,6.53-5,1.09-1.66,1.55-4.4-.43-5.62s-4.32-.22-5.67,1.34c-1.81,2.09-2,5.13-2.4,7.74A1.06,1.06,0,0,0,344.76,123.48Zm4.17-8.37,0,.26a7.81,7.81,0,0,0-1.68,2A5.42,5.42,0,0,1,348.94,115.11Z" fill="#c3ea75"/><path d="M338.88,118.17c3.26-1.47,3.82,4.13,3.9,6a.87.87,0,0,1-.67.93,1,1,0,0,1-1.4,0c-1.1-1-2.49-1.92-2.83-3.44C337.62,120.53,337.62,118.73,338.88,118.17Z" fill="#c3ea75"/><path d="M326.53,115.56a4.71,4.71,0,0,0,2.08.58c2.52-.38,3.8-4.39,4.25-6.49s.94-5.54-1.58-6.64-4.73,1-5.42,3.22C325,109.19,325.51,112.7,326.53,115.56Zm1.36-2.85a6.59,6.59,0,0,1,0-1.61,9.72,9.72,0,0,0,.07,1.1v.05C328,112.41,327.94,112.56,327.9,112.71Z" fill="#c3ea75"/><path d="M313.29,116.1c-.09,2.58,2.47,3.63,4.6,4,1.32.26,6,1.43,6.12-.89a1.06,1.06,0,0,0,.17-1.13c-1-2.46-3.53-3.53-6-4.19C316.21,113.4,313.39,113.29,313.29,116.1Zm2-.11a3.23,3.23,0,0,0,.26.42,1.17,1.17,0,0,0-.13.46A.77.77,0,0,1,315.27,116Z" fill="#c3ea75"/><path d="M331.41,118.1a1,1,0,0,0,1.19.7,7.39,7.39,0,0,0,3.83-1.68,2.7,2.7,0,0,0,.58-3.27c-1.55-2.34-5.14,1.61-6.07,2.87A.87.87,0,0,0,331.41,118.1Zm2.83-1.91-.17.07,1-.69h0A2.36,2.36,0,0,1,334.24,116.19Z" fill="#c3ea75"/><polygon points="254.54 201.87 270.19 199.19 272.17 200.61 265.54 209.76 262.68 207.71 266.77 202.24 257.39 203.91 254.54 201.87" fill="#fff"/><polygon points="249.76 204.4 252.62 206.45 248.51 211.92 257.91 210.24 260.77 212.29 245.1 214.97 243.12 213.55 249.76 204.4" fill="#fff"/><path d="M203.66,235.09a7.35,7.35,0,0,1,3.53,1,2.44,2.44,0,0,1,1.46,2,2.11,2.11,0,0,1-1.39,1.85,4.69,4.69,0,0,1-1.39.44,5.83,5.83,0,0,1-1.23.1l-.47,0,3.72,2.24-2,1-9.65-5.81,2-1,.83.5v-.1s0-.14,0-.27a1.19,1.19,0,0,1,.13-.39,1.67,1.67,0,0,1,.36-.44,2.82,2.82,0,0,1,.66-.45A6.82,6.82,0,0,1,203.66,235.09Zm2.3,3.09c0-.38-.28-.74-.83-1.07a3.94,3.94,0,0,0-1.85-.55,3.47,3.47,0,0,0-1.76.32c-.49.25-.73.56-.73.95s.28.74.83,1.07a3.94,3.94,0,0,0,1.85.55,3.47,3.47,0,0,0,1.78-.32c.48-.25.73-.56.72-.95" fill="#fff"/><path d="M221.45,226a7.41,7.41,0,0,1,3.53,1,2.46,2.46,0,0,1,1.46,2,2.11,2.11,0,0,1-1.39,1.85,4.77,4.77,0,0,1-1.39.44,6,6,0,0,1-1.23.1l-.47,0,3.72,2.24-2,1L214,228.83l2-1,.83.5v-.11a1.52,1.52,0,0,1,0-.27,1.33,1.33,0,0,1,.13-.39,1.81,1.81,0,0,1,.36-.44,2.82,2.82,0,0,1,.66-.45A6.82,6.82,0,0,1,221.45,226Zm2.3,3.09c0-.38-.28-.74-.83-1.07a3.94,3.94,0,0,0-1.85-.55,3.45,3.45,0,0,0-1.76.32c-.48.25-.73.56-.73.94s.28.74.82,1.07a4,4,0,0,0,1.86.54,3.44,3.44,0,0,0,1.77-.32c.49-.25.73-.56.72-.95" fill="#fff"/><path d="M204.43,230.51l3.72,2.24a1.45,1.45,0,0,1,0-.28,1.36,1.36,0,0,1,.26-.6,2.07,2.07,0,0,1,.85-.73,5.41,5.41,0,0,1,2.81-.54,6.28,6.28,0,0,1,2.94.9l3.93,2.37-2,1-3.72-2.24a2.86,2.86,0,0,0-1.39-.4,2.79,2.79,0,0,0-1.39.28c-.45.23-.66.5-.65.8s.27.6.78.91l3.51,2.12-2,1-9.65-5.81Z" fill="#fff"/></svg>