<svg id="Layer_2" data-name="Layer 2" xmlns="http://www.w3.org/2000/svg" xmlns:xlink="http://www.w3.org/1999/xlink" viewBox="0 0 400 300" data-imageid="graphics-and-charts-isometric" imageName="Graphics and charts" class="illustrations_image" style="width: 148px;"><defs><linearGradient id="linear-gradient" x1="279.09" y1="160.71" x2="264.77" y2="139.1" gradientUnits="userSpaceOnUse"><stop offset="0" stop-color="#20a532"/><stop offset="1" stop-color="#297600"/></linearGradient><linearGradient id="linear-gradient-2" x1="356.38" y1="195.83" x2="346.05" y2="180.24" xlink:href="#linear-gradient"/><linearGradient id="linear-gradient-3" x1="236.54" y1="239.03" x2="221.05" y2="215.67" xlink:href="#linear-gradient"/></defs><title>PP</title><path d="M194.28,286.39,14.56,180.17C8.84,177,3.93,171.68,9.51,168.22l180.37-104c2.71-1.68,6.82-2.78,9.57-1.18L388.11,172.58c5.72,3.32,6.75,12.6,1,15.93L218,286.22A23.9,23.9,0,0,1,194.28,286.39Z" fill="#20a532"/><polyline points="234.22 151.92 271.21 173.31 311.03 150 276.28 128.36" fill="url(#linear-gradient)"/><polyline points="327.15 187.41 354.22 202.86 376.29 190.18 354.22 176.72" fill="url(#linear-gradient-2)"/><polyline points="150.92 254.13 186.55 274.77 308.18 202.86 268.15 179.53" fill="url(#linear-gradient-3)"/><path d="M77.4,202.67a2.27,2.27,0,0,1-2.64-.64s-.46-.09-.46-2.12V106a5.76,5.76,0,0,1,2.06-4.24,67.89,67.89,0,0,1,7.19-4.39L187.86,37.19l1.17-.6a1.84,1.84,0,0,1,2.32.6,3.74,3.74,0,0,1,.51,1.71c0,1,0,10.47,0,10.47v84.46a5.84,5.84,0,0,1-1.9,4.31Z" fill="#334c42"/><path d="M76.22,191.41v-81c0-2.69.37-4.19,2.44-5.32l110-63.73A1.46,1.46,0,0,1,191,42.53l-.27,83.29Z" fill="#68e1fd" class="target-color"/><ellipse cx="179.88" cy="60.82" rx="4.78" ry="4.18" transform="matrix(0.4, -0.92, 0.92, 0.4, 52.35, 201.5)" fill="#ffe427"/><polygon points="96.44 134.52 96.44 164.9 102.74 161.21 102.8 130.84 96.44 134.52" fill="#ffe427"/><polygon points="107.02 123.29 106.91 159.01 113.52 155.17 113.52 119.63 107.02 123.29" fill="#ffe427"/><polygon points="117.69 113.63 117.58 153.04 123.46 149.63 123.46 110.12 117.69 113.63" fill="#ffe427"/><ellipse cx="179.88" cy="73.37" rx="4.78" ry="4.18" transform="translate(40.84 209.05) rotate(-66.49)" fill="#ffe427"/><ellipse cx="179.88" cy="85.53" rx="4.78" ry="4.18" transform="translate(8.75 187.45) rotate(-56.21)" fill="#ffe427"/><path d="M147.53,128.36a14.44,14.44,0,0,1-4.38-.68c-5-1.59-8.78-5.75-10.61-11.7a30.93,30.93,0,0,1,.46-18.2c4.31-13.6,15.53-21.76,25.53-18.58S173,95.5,168.68,109.1h0a30.93,30.93,0,0,1-10.12,15.14A18.12,18.12,0,0,1,147.53,128.36Zm6.65-42.62c-5.5,0-11.67,5.92-14.3,14.22a23.68,23.68,0,0,0-.44,13.9c1.11,3.63,3.21,6.09,5.89,6.95s5.82,0,8.82-2.28a23.68,23.68,0,0,0,7.66-11.61c3-9.41.49-19-5.45-20.85A7.17,7.17,0,0,0,154.18,85.73Z" fill="#334c42"/><path d="M97,168.62v0a1.45,1.45,0,0,0,2.17,1.26l27.07-15.46a1.45,1.45,0,0,0,.73-1.26h0a1.45,1.45,0,0,0-2.17-1.26L97.73,167.36A1.45,1.45,0,0,0,97,168.62Z" fill="#ffe427"/><path d="M91.1,109.32v11a1.54,1.54,0,0,0,2.31,1.33l29.79-17.2a1.54,1.54,0,0,0,.77-1.33v-11a1.54,1.54,0,0,0-2.31-1.33L91.87,108A1.54,1.54,0,0,0,91.1,109.32Z" fill="#ffe427"/><ellipse cx="97.77" cy="112.07" rx="4.86" ry="3.88" transform="translate(-38.62 171.36) rotate(-72.39)" fill="#fff"/><path d="M103.18,106.51l17.42-9.75a.75.75,0,0,0-.76-1.3l-17.42,9.75a.75.75,0,0,0,.76,1.3Z" fill="#7f47dd"/><path d="M103.83,110.76l10.82-6.06a.75.75,0,0,0-.76-1.3l-10.82,6.06a.75.75,0,0,0,.76,1.3Z" fill="#7f47dd"/><polyline points="273.08 184.65 273.08 188.35 271.21 190.65" fill="#adcee1"/><path d="M198.58,139.5,271,184.36a4.49,4.49,0,0,1-.15,7.72L161,254.21a10.06,10.06,0,0,1-10.05-.08L78.86,211.77c-5.24-4.3-4.84-12.4,0-12.74l109.2-59.7A10.21,10.21,0,0,1,198.58,139.5Z" fill="#88d3d8"/><path d="M198.58,136.41,271,181.27a4.49,4.49,0,0,1-.15,7.72L161,251.12a10.06,10.06,0,0,1-10.05-.08L78.86,208.68a5.58,5.58,0,0,1,0-9.65l109.2-62.79A10.21,10.21,0,0,1,198.58,136.41Z" fill="#fff"/><path d="M203,146.69l26.47,16.49a3.19,3.19,0,0,1-.11,5.48l-95,54.15a9.35,9.35,0,0,1-9.34,0c-6.11-3.56-16.62-10-23.05-13.91a3.88,3.88,0,0,1,.07-6.67C121.29,191,184,154.56,197.69,146.6A5.17,5.17,0,0,1,203,146.69Z" fill="#68e1fd" class="target-color"/><path d="M201.6,191.44l-33.19,18.66a3.32,3.32,0,0,0,0,5.75l19.52,11.42a4.41,4.41,0,0,0,4.41,0l34-19.36a2.77,2.77,0,0,0,0-4.82L206,191.46A4.41,4.41,0,0,0,201.6,191.44Z" fill="#68e1fd" class="target-color"/><path d="M203,146.69l26.47,16.49a3.19,3.19,0,0,1-.11,5.48l-95,54.15a9.35,9.35,0,0,1-9.34,0c-6.11-3.56-16.62-10-23.05-13.91a3.88,3.88,0,0,1,.07-6.67C121.29,191,184,154.56,197.69,146.6A5.17,5.17,0,0,1,203,146.69Z" fill="#053855" opacity="0.1"/><path d="M201.6,191.44l-33.19,18.66a3.32,3.32,0,0,0,0,5.75l19.52,11.42a4.41,4.41,0,0,0,4.41,0l34-19.36a2.77,2.77,0,0,0,0-4.82L206,191.46A4.41,4.41,0,0,0,201.6,191.44Z" fill="#053855" opacity="0.1"/><path d="M339.48,138c-12.3,0-22.28,3.26-22.28,7.28h44.56C361.76,141.3,351.79,138,339.48,138Z" fill="#06489e"/><path d="M317.27,145.88l-.07-.56A2.47,2.47,0,0,0,317.27,145.88Z" fill="#06489e"/><path d="M361.76,145.32l-.09.64A2.48,2.48,0,0,0,361.76,145.32Z" fill="#06489e"/><path d="M339.48,152.6c11.65,0,21.2-2.92,22.19-6.65l.09-.64H317.2l.07.56C318.15,149.64,327.76,152.6,339.48,152.6Z" fill="#06489e"/><rect x="342.98" y="107.71" width="5.01" height="51.71" fill="#25b000"/><ellipse cx="345.49" cy="107.71" rx="2.51" ry="1.06" fill="#25b000"/><rect x="349" y="116.56" width="5.01" height="51.71" transform="translate(35.6 -67.44) rotate(11.54)" fill="#ff8f02"/><ellipse cx="356.68" cy="117.08" rx="1.06" ry="2.51" transform="translate(170.6 443.12) rotate(-78.46)" fill="#ff8f02"/><path d="M333.43,146.46l-4.58,2.62a.41.41,0,0,1-.4-.7l4.68-2.68a.41.41,0,0,1,.14-.05l-.92-5-4.6,2.63a.41.41,0,0,1-.4-.7l4.68-2.68a.41.41,0,0,1,.17-.05l-.85-4.58-4.53,2.59a.41.41,0,0,1-.4-.7l4.68-2.68.09,0-.95-5.1-4.51,2.58a.41.41,0,0,1-.4-.7l4.68-2.68.07,0-.93-5-4.58,2.62a.41.41,0,0,1-.4-.7l4.68-2.68a.41.41,0,0,1,.14-.05l-.8-4.33L323.64,121a.41.41,0,0,1-.4-.7l4.68-2.68a.41.41,0,0,1,.15-.05l-.8-4.32-4.57,2.61a.41.41,0,0,1-.4-.7L327,112.5a.41.41,0,0,1,.14,0l-.88-4.76-4.53,2.59a.41.41,0,0,1-.4-.7L326,106.9l.09,0-.41-2.21-9.94,6.16s7.06,39.31,7.21,39.39c4.12,2.15,11.62,2.4,11.62,2.4Z" fill="#ffaf68"/><path d="M321.31,109.58a.41.41,0,0,0,.4.7l4.53-2.59-.15-.83-.09,0Z" fill="#ca4300"/><path d="M322.3,115.18a.41.41,0,0,0,.4.7l4.57-2.61-.15-.82a.41.41,0,0,0-.14,0Z" fill="#ca4300"/><path d="M323.24,120.32a.41.41,0,0,0,.4.7l4.58-2.62-.15-.81a.41.41,0,0,0-.15.05Z" fill="#ca4300"/><path d="M324.2,125.46a.41.41,0,0,0,.4.7l4.58-2.62-.15-.81a.41.41,0,0,0-.14.05Z" fill="#ca4300"/><path d="M325.35,131.24a.41.41,0,0,0,.4.7l4.51-2.58-.16-.84-.07,0Z" fill="#ca4300"/><path d="M326.43,137.19a.41.41,0,0,0,.4.7l4.53-2.59-.15-.83-.09,0Z" fill="#ca4300"/><path d="M332,139.94l-4.68,2.68a.41.41,0,0,0,.4.7l4.6-2.63-.15-.8A.41.41,0,0,0,332,139.94Z" fill="#ca4300"/><path d="M328.45,148.37a.41.41,0,0,0,.4.7l4.58-2.62-.15-.81a.41.41,0,0,0-.14.05Z" fill="#ca4300"/><path d="M354.22,116.58s.25,1.31,2.24,1.54,2.67-.54,2.67-.54l-.65-9.87Z" fill="#ffd8bd"/><path d="M358.49,107.71l-2,4.12a1.8,1.8,0,0,0,2.27.32Z" fill="#653200"/><path d="M343,107.41s.46,1.26,2.46,1.17,2.55-1,2.55-1L345.8,98Z" fill="#ffd8bd"/><path d="M345.8,98l-1.31,4.38a1.8,1.8,0,0,0,2.29,0Z" fill="#653200"/><path d="M339.48,152.6c-11.72,0-21.33-3-22.21-6.72.58,4.5,4.59,35.41,4.74,35.59,0,0,2,8.72,17.47,8.71,13.13,0,16.87-6.59,16.87-6.59L361.67,146C360.68,149.68,351.13,152.6,339.48,152.6Z" fill="#68e1fd" class="target-color"/><polyline points="222.14 57.73 222.14 86.1 254.76 87.35 273.57 72.6 273.57 43.96" fill="#68e1fd" class="target-color"/><polyline points="222.14 51.02 222.14 86.1 254.76 87.35 273.57 72.6 273.57 43.96" fill="#0fb7ce" opacity="0.86"/><path d="M273.57,37.26a50.57,50.57,0,0,0-18.75-3.41c-17,0-31.06,7.53-32.67,17.17L255,50.73Z" fill="#68e1fd" class="target-color"/><path d="M260.28,101.49V151a122.67,122.67,0,0,0,16.1-7.64c7.08-4.2,8.7-3.84,9.11-7.22.07-.54.11-52.37.11-52.37" fill="#c90180"/><path d="M254.46,83.75l19.09-14.26s11.32,3.87,12.05,14.26-15,16.85-25.33,17.74Z" fill="#f0008d"/><polygon points="255.03 50.73 254.46 88.53 273.55 72.08 273.57 37.26 255.03 50.73" fill="#68e1fd" class="target-color"/><polygon points="255.03 50.73 254.46 88.53 273.55 72.08 273.57 37.26 255.03 50.73" fill="#0fb7ce" opacity="0.65"/><path d="M260.83,87.53v51.25a43.36,43.36,0,0,1-26.61-2.66c-9.47-4.34-11.18-9-12.06-12.89V69" fill="#edaf24"/><path d="M222.15,69h32.59l6.09,18.57s-16.9,2.25-29.41-5.37C220.58,75.56,222.15,69,222.15,69Z" fill="#ffcb44"/><path d="M260.28,148.52v7.37s9-.71,16.1-4.91,8.7-7.87,9.11-11.24c.07-.54.11-9,.11-9" fill="#c90180"/><path d="M260.83,134.56v21.29a50.35,50.35,0,0,1-26.61-3.93c-9.47-4.34-11.18-9.52-12.06-13.4V116" fill="#edaf24"/><path d="M224.22,176.72l5.56,15.1L228.34,194l-2.3.07s-.91-4.16-1.92-4.84-1,4.13-1.75,4.31-10.15.39-10.59-.64c-.58-1.38.91-3.57,4.87-3.75,4.29-.19,3.68-4.91,3.06-9.42" fill="#f8997c"/><path d="M224.65,189.76l-.54-.49a2.24,2.24,0,0,0-2.27.11c-.91.79.31,4.41.31,4.41l3.24-2.41A4.14,4.14,0,0,0,224.65,189.76Z" fill="#9e005d"/><path d="M220.9,91.94q-.61-3.21-1.39-6.37a22.93,22.93,0,0,1-1.71-1.66,2.93,2.93,0,0,1-.69-3.34,1,1,0,0,1,1.9.63l.13.2c.75-2.21,2.27-6.17,4.21-4.61a1.78,1.78,0,0,1,.28-.16,1.48,1.48,0,0,1,1.91.7,1.71,1.71,0,0,1,0,1.65,1.61,1.61,0,0,1,.16,2.19l-.33.5A.91.91,0,0,1,226,83c-.31.58-.6,1.16-.9,1.75.11,4.6,0,6.83.61,8.73.25.79.62.17,0,0a.92.92,0,0,1-1.21-.57l-.08-.22a.93.93,0,0,1-1.35-.23l-.19-.3A1,1,0,0,1,220.9,91.94Z" fill="#ff7d09"/><path d="M207.72,96.15s7.21,1.93,9.65.63,1.72-10.63,1.72-10.63a61.47,61.47,0,0,1,6.36.55c1.88.37,1.43,12-2.31,16.85s-15.9,4.67-15.9,4.67" fill="#f8997c"/><path d="M177.26,105.56q-3.49-1.21-6.9-2.62a25.93,25.93,0,0,0-1.57-2.19,3.32,3.32,0,0,0-3.62-1.33,1.14,1.14,0,0,0,.38,2.23l.2.18c-2.6.47-7.28,1.5-5.86,3.94a2,2,0,0,0-.23.29,1.67,1.67,0,0,0,.46,2.25,1.94,1.94,0,0,0,1.85.24,1.82,1.82,0,0,0,2.42.55l.62-.28a1,1,0,0,0,1.38,1l2.11-.71c5.13.9,7.64,1.13,9.66,2.14.84.42.08.72,0,0a1,1,0,0,0-.44-1.45l-.23-.12a1.06,1.06,0,0,0,0-1.54l-.3-.27A1.18,1.18,0,0,0,177.26,105.56Z" fill="#ff7d09"/><path d="M210,173c-.48-.22-18.85-55.4,1-54.25,7.71.45,9.91,33.49,10.41,37.13s6.87,24.08,6.87,24.08c-5.86,5.57-10.07,4.68-10.07,4.68Z" fill="#c90180"/><path d="M194.83,185.32l1.42,16-2,1.77-2.24-.54s.21-4.25-.59-5.17-2.05,3.72-2.82,3.71-9.9-2.28-10-3.39c-.2-1.48,1.81-3.21,5.68-2.34,4.19.94,4.84-3.78,5.41-8.3" fill="#f8997c"/><path d="M191.84,198l-.39-.61a2.24,2.24,0,0,0-2.22-.49c-1.09.53-.86,4.33-.86,4.33l3.76-1.48A4.14,4.14,0,0,0,191.84,198Z" fill="#9e005d"/><path d="M198.2,124.19s-6.73,18.15-8.26,26-3.85,38.18-3.31,39,6.27,2.76,10.68,2.69,6.9-36.26,6.9-36.26,12-30.46,8.81-33.8S198.2,124.19,198.2,124.19Z" fill="#c90180"/><path d="M197.49,128.49c6.11,1.93,13.87-.38,17.6-5.63-.7-8.59-2.18-22.8-4.38-24.92-3.19-3.08-10.1,1.3-12.59,5.59-1.29,2.22-11.81,1.83-11.81,1.83l-13.87-2.07-1.71,6.62s18.59,6.7,27.31,3.93Z" fill="#f8997c"/><path d="M200.08,82.32c-.49.11-1.29.89-2.48,3.7s1.66,6.38,2.9,7.13,3,3.67,3,3.67,4.56,1.1,7.63-4.48S207.48,80.7,200.08,82.32Z" fill="#cc4d1b"/><path d="M198.79,85.44s-2.3,9.34,1.09,11.47,8-3.53,8.39-5.79S206.23,84,198.79,85.44Z" fill="#ff7d09"/><path d="M198.79,85.44s-.57,6.1,2.59,7.44,3.22,3.25,3.22,3.25S210.38,93,211,90.31,203.21,83,198.79,85.44Z" fill="#cc4d1b"/><path d="M209.4,92.77c-1.15,9.14,1.16,20.86-2.64,29.44-.23.53-.74,2.91-1.13,2.9l9.23-5c3.7-2.29,6.39-3.77,5.07-9.58s-8.76-18.17-8.76-18.17Z" fill="#cc4d1b"/><path d="M208.32,96.9,207.46,95a40.93,40.93,0,0,1-5.28,2.27c-2.17.66-1.56,3.17-1.56,3.17S205.66,100.49,208.32,96.9Z" fill="#5fad00"/></svg>